<svg id="Layer_1" height="512" viewBox="0 0 512 512" width="512" xmlns="http://www.w3.org/2000/svg" data-name="Layer 1"><path d="m34.232 274.232c0-104.844 72.763-192.672 170.54-215.795v-34.459c0-3.126 1.681-5.803 4.497-7.161s5.958-1.007 8.404.94l86.555 68.88c1.96 1.56 3 3.716 3 6.221s-1.04 4.661-3 6.221l-86.555 68.88c-2.446 1.947-5.588 2.299-8.404.94-2.816-1.358-4.497-4.035-4.497-7.161v-34.437c-60.76 21.177-104.364 78.951-104.364 146.93 0 85.931 69.661 155.591 155.592 155.591s155.592-69.661 155.592-155.591c0-38.954-14.315-74.565-37.971-101.858-4.133-4.768-3.879-11.883.583-16.345l29.883-29.883c2.421-2.422 5.404-3.607 8.827-3.51s6.333 1.45 8.613 4.005c34.981 39.204 56.242 90.915 56.242 147.591 0 122.479-99.289 221.767-221.768 221.767s-221.769-99.287-221.769-221.766z" fill-rule="evenodd"/></svg>