<svg height="512pt" viewBox="0 0 512.00028 512" width="512pt" xmlns="http://www.w3.org/2000/svg"><path d="m89.953125 257.832031c-.851563-92.554687 74.726563-167.878906 165.914063-167.878906 22.5625 0 45.214843 4.394531 65.640624 13.105469l-34.425781 34.453125 183.015625 46.640625-46.640625-183.042969-35.523437 35.523437c-39.472656-23.996093-85.535156-36.632812-132.066406-36.632812-136.628907 0-249.175782 107.921875-255.296876 244.402344l-.570312 12.652344 90.128906 19.515624zm0 0"/><path d="m421.78125 255.867188c0 91.839843-76.246094 165.914062-165.914062 165.914062-22.222657 0-45.140626-4.476562-65.359376-13.074219l33.226563-33.238281-183.078125-47.050781 47.066406 183.046875 35.976563-35.964844c39.792969 23.746094 85.890625 36.234375 132.167969 36.234375 136.320312 0 248.839843-107.496094 255.265624-243.464844l.601563-12.679687c5.835937 1.183594-86.933594-17.6875-89.953125-18.300782zm0 0"/></svg>